<?xml version="1.0" encoding="UTF-8"?>
<!DOCTYPE svg PUBLIC "-//W3C//DTD SVG 1.1//EN" "http://www.w3.org/Graphics/SVG/1.1/DTD/svg11.dtd">
<svg xmlns="http://www.w3.org/2000/svg" version="1.1" width="336px" height="604px" style="shape-rendering:geometricPrecision; text-rendering:geometricPrecision; image-rendering:optimizeQuality; fill-rule:evenodd; clip-rule:evenodd" xmlns:xlink="http://www.w3.org/1999/xlink">
<g><path style="opacity:1" fill="#000000" d="M 169.5,23.5 C 177.177,24.0022 182.51,27.8356 185.5,35C 204.036,34.0179 222.536,33.5179 241,33.5C 294.359,35.3576 322.525,63.0242 325.5,116.5C 327.256,231.294 320.423,345.628 305,459.5C 297.789,492.009 280.955,518.175 254.5,538C 217.458,560.687 178.458,579.354 137.5,594C 133.338,594.541 129.172,595.041 125,595.5C 114.639,593.825 104.473,591.325 94.5,588C 78.8014,582.303 68.6348,571.47 64,555.5C 60.2601,551.689 57.2601,547.356 55,542.5C 42.7877,533.748 34.7877,522.082 31,507.5C 11.443,381.456 5.44301,254.789 13,127.5C 17.4747,84.0232 40.6414,56.1898 82.5,44C 103.011,39.9147 123.678,36.9147 144.5,35C 147.137,33.0395 149.803,31.0395 152.5,29C 158.373,27.4301 164.04,25.5968 169.5,23.5 Z"/></g>
<g><path style="opacity:1" fill="#fefefe" d="M 167.5,27.5 C 174.101,26.1338 178.768,28.4672 181.5,34.5C 181.167,34.8333 180.833,35.1667 180.5,35.5C 171.782,36.2351 163.115,37.4018 154.5,39C 162.077,39.1848 169.577,38.6848 177,37.5C 179.128,37.073 181.295,37.573 183.5,39C 164.405,41.8702 145.405,45.2036 126.5,49C 104.921,54.6025 87.754,66.4359 75,84.5C 57.5299,110.024 48.8633,138.357 49,169.5C 41.306,294.883 44.9726,419.883 60,544.5C 55.6667,537.833 51.3333,531.167 47,524.5C 45.2039,520.317 43.8706,515.984 43,511.5C 23.7551,383.725 18.7551,255.392 28,126.5C 32.6438,88.7025 53.1438,64.2025 89.5,53C 107.544,49.6044 125.544,46.1044 143.5,42.5C 127.082,44.3472 110.749,46.8472 94.5,50C 50.1383,62.7102 26.9717,92.2102 25,138.5C 17.4656,263.073 22.7989,387.073 41,510.5C 48.1835,532.77 46.5168,533.77 36,513.5C 26.3773,459.896 20.044,405.896 17,351.5C 12.7016,278.523 12.3683,205.523 16,132.5C 18.5844,87.5994 41.4177,59.0994 84.5,47C 103.211,43.3537 122.044,40.5204 141,38.5C 143.05,38.691 144.883,39.3576 146.5,40.5C 148.369,37.948 150.369,35.448 152.5,33C 157.571,31.0353 162.571,29.202 167.5,27.5 Z"/></g>
<g><path style="opacity:1" fill="#fefefe" d="M 225.5,38.5 C 239.534,38.1828 253.534,38.6828 267.5,40C 223.285,39.5881 179.618,44.2548 136.5,54C 107.115,65.0514 86.6147,85.2181 75,114.5C 67.6222,134.138 63.9555,154.472 64,175.5C 56.2831,300.227 60.2831,424.561 76,548.5C 78.2928,561.067 83.4595,572.234 91.5,582C 88.2296,581.537 85.2296,580.204 82.5,578C 73.2086,570.255 67.3753,560.422 65,548.5C 53.3291,466.978 47.8291,385.312 48.5,303.5C 48.6592,254.791 50.1592,206.125 53,157.5C 55.032,122.612 68.532,93.1117 93.5,69C 105.08,60.0452 118.08,54.0452 132.5,51C 163.361,44.6293 194.361,40.4627 225.5,38.5 Z"/></g>
<g><path style="opacity:1" fill="#fefefe" d="M 236.5,41.5 C 282.878,34.9379 310.711,54.6046 320,100.5C 324.534,220.018 318.534,339.018 302,457.5C 295.407,488.875 279.574,514.375 254.5,534C 217.062,557.552 177.395,576.552 135.5,591C 115.285,593.71 98.7848,587.21 86,571.5C 82.3484,564.879 79.6818,557.879 78,550.5C 60.9784,418.885 57.3117,286.885 67,154.5C 70.1223,116.062 87.2889,85.8956 118.5,64C 130.558,56.8695 143.558,52.5362 157.5,51C 183.818,46.4179 210.151,43.2512 236.5,41.5 Z"/></g>
<g><path style="opacity:1" fill="#000000" d="M 207.5,75.5 C 227.269,73.8066 240.102,82.4732 246,101.5C 252.671,129.677 244.838,152.844 222.5,171C 197.707,181.691 180.873,174.191 172,148.5C 166.702,122.856 173.535,101.023 192.5,83C 197.324,79.9215 202.324,77.4215 207.5,75.5 Z"/></g>
<g><path style="opacity:1" fill="#fefefe" d="M 210.5,76.5 C 228.833,76.6577 240.333,85.6577 245,103.5C 250.318,128.417 243.818,149.583 225.5,167C 203.169,180.999 186.336,176.165 175,152.5C 168.271,130.262 171.938,109.929 186,91.5C 192.804,84.0265 200.971,79.0265 210.5,76.5 Z"/></g>
<g><path style="opacity:1" fill="#000000" d="M 203.5,113.5 C 205.5,113.5 207.5,113.5 209.5,113.5C 208.375,121.392 208.375,129.225 209.5,137C 207.75,138.319 205.75,138.819 203.5,138.5C 203.5,130.167 203.5,121.833 203.5,113.5 Z"/></g>
<g><path style="opacity:1" fill="#fefefe" d="M 205.5,115.5 C 207.461,122.087 208.128,129.087 207.5,136.5C 206.5,136.5 205.5,136.5 204.5,136.5C 204.326,129.465 204.659,122.465 205.5,115.5 Z"/></g>
<g><path style="opacity:1" fill="#000000" d="M 205.5,493.5 C 211.618,494.118 214.118,497.452 213,503.5C 211.144,511.37 206.311,515.537 198.5,516C 194.443,514.053 192.943,510.886 194,506.5C 195.617,500.058 199.45,495.725 205.5,493.5 Z"/></g>
<g><path style="opacity:1" fill="#fefefe" d="M 204.5,495.5 C 207.044,495.104 209.211,495.771 211,497.5C 212.621,508.2 208.121,513.7 197.5,514C 195.022,510.315 194.856,506.482 197,502.5C 199.015,499.588 201.515,497.255 204.5,495.5 Z"/></g>
<g><path style="opacity:1" fill="#000000" d="M 205.5,497.5 C 209.146,498.462 210.313,500.795 209,504.5C 207.631,508.702 204.797,511.369 200.5,512.5C 197.856,511.259 197.023,509.259 198,506.5C 199.642,502.7 202.142,499.7 205.5,497.5 Z"/></g>
<g><path style="opacity:1" fill="#fefffe" d="M 204.5,499.5 C 205.5,499.5 206.5,499.5 207.5,499.5C 207.852,505.467 205.186,509.134 199.5,510.5C 199.277,505.948 200.944,502.281 204.5,499.5 Z"/></g>
</svg>
